<svg width="17" height="15" viewBox="0 0 17 15" fill="none" xmlns="http://www.w3.org/2000/svg">
<path d="M16.7564 4.30999C16.787 4.32122 16.8189 4.33745 16.8468 4.35743C17.0157 4.47477 17.0503 4.69697 16.9226 4.85426L8.82154 14.8571C8.74308 14.9545 8.62074 15.0032 8.4984 14.9994C8.37606 15.0044 8.25505 14.9557 8.17526 14.8571L0.0755318 4.85426C-0.050798 4.69697 -0.0162235 4.47477 0.152659 4.35743C0.183245 4.3362 0.216489 4.31873 0.252393 4.30749L5.39468 1.09929C5.40266 1.0943 5.41064 1.09055 5.41729 1.08556C5.48378 1.03438 5.56888 1.00317 5.66197 1.00317H11.3428H11.3614C11.4545 0.989436 11.5529 1.00691 11.6367 1.06059L16.7564 4.30999ZM5.775 1.71596L3.76702 2.96928L5.75904 4.0029H11.2404L13.2125 2.92434L11.3109 1.71721H5.775V1.71596ZM3.05558 3.41369L1.09814 4.6358L4.96649 6.88279L5.24707 4.55092L3.05558 3.41369ZM5.9984 4.7157L5.70718 7.13371H11.2949L11.0037 4.7157H5.9984ZM11.7524 4.54717L12.0343 6.88155L15.908 4.63206L13.912 3.36625L11.7524 4.54717ZM1.92128 5.95279L6.96782 12.1832L4.97314 7.72542L1.92128 5.95279ZM5.85612 7.84526L8.49973 13.7561L11.1433 7.84526H5.85612ZM12.0277 7.72417L10.033 12.1832L15.0782 5.95279L12.0277 7.72417Z" fill="#009FE3"/>
</svg>
