<svg width="18" height="17" viewBox="0 0 18 17" fill="none" xmlns="http://www.w3.org/2000/svg">
<path d="M4.86565 4.07435L9.1637 2.20324C9.37736 2.11078 9.62467 2.20911 9.71541 2.42337L9.72419 2.44685C10.4149 4.35025 10.4778 5.28948 10.6403 7.69184L10.6447 7.76082C10.6593 7.98388 10.4998 8.1776 10.2832 8.20695C9.36272 8.34196 8.64419 8.4535 7.92711 8.5665C6.89101 8.72793 5.86077 8.88935 4.78077 9.03904C4.55101 9.07133 4.33736 8.9099 4.30662 8.6795C4.30223 8.64428 4.30223 8.60905 4.30516 8.5753C4.37101 7.98241 4.44711 7.53628 4.51443 7.14445C4.65638 6.31382 4.75443 5.73561 4.60077 4.51902C4.57736 4.3253 4.69004 4.14333 4.86565 4.07435ZM9.08321 3.15861L5.47297 4.72888C5.59004 5.86329 5.48906 6.46057 5.34711 7.2868C5.30467 7.53775 5.25784 7.81071 5.21248 8.12623C6.14321 7.99269 6.97004 7.86354 7.7998 7.73293C8.47297 7.62727 9.15199 7.52161 9.77833 7.42768C9.64955 5.52282 9.5676 4.60414 9.08321 3.15861ZM10.7017 1.55312L15.1139 0.0239395C15.2969 -0.0391647 15.4944 0.0312772 15.5983 0.185369C16.3271 1.25961 16.8437 2.20764 17.2139 3.20997C17.5842 4.2123 17.8081 5.26453 17.9515 6.54422C17.9764 6.77463 17.811 6.98302 17.5827 7.00943C17.2857 7.06373 16.7983 7.15472 16.3403 7.23837C14.8783 7.50987 13.4676 7.77256 12.0027 7.99562C11.773 8.03084 11.5578 7.87088 11.5227 7.64048C11.5198 7.6258 11.5198 7.60966 11.5183 7.59498L11.5008 7.35577C11.3252 5.0532 11.271 4.35025 10.431 2.10345C10.3505 1.88478 10.4603 1.64264 10.6783 1.56192L10.7017 1.55312ZM15.0817 0.926477L11.3676 2.21351C12.0876 4.2035 12.1652 4.99597 12.3261 7.08868C13.6666 6.87589 14.9091 6.64548 16.1896 6.40774C16.4603 6.35785 16.7208 6.30942 17.0676 6.24485C16.933 5.2117 16.7325 4.33558 16.4237 3.50201C16.1076 2.6479 15.6759 1.83195 15.0817 0.926477ZM11.9852 8.99061C13.693 8.77929 15.0613 8.53274 16.633 8.25097V8.24951L17.5052 8.09248C17.7349 8.05139 17.9544 8.20401 17.9954 8.43442C18.0027 8.47404 18.0042 8.51366 17.9998 8.55182C17.9808 9.86967 17.8959 11.051 17.751 12.2163C17.6047 13.3932 17.3939 14.5673 17.1247 15.8587C17.0866 16.0436 16.9315 16.1757 16.753 16.1933L16.2642 16.2711C13.9857 16.6321 12.1813 16.9168 9.7915 17.0019C9.55882 17.0107 9.36419 16.8288 9.35687 16.5954C9.35394 16.5294 9.36711 16.4663 9.39199 16.4105H9.39053C9.91443 15.2159 10.3271 14.1754 10.6754 13.0777C11.0252 11.98 11.3193 10.803 11.612 9.32962C11.65 9.14177 11.8052 9.00823 11.9852 8.99061ZM16.7808 9.08014C15.2647 9.3531 13.9315 9.59231 12.3803 9.79336C12.1037 11.1435 11.8169 12.2632 11.4774 13.3316C11.1759 14.2782 10.8378 15.1675 10.431 16.1287C12.4549 16.0201 14.1042 15.7589 16.1354 15.4375L16.3593 15.4023C16.5935 14.2562 16.7793 13.1922 16.9139 12.115C17.0398 11.1068 17.1188 10.0986 17.1496 9.01703L16.7822 9.08307L16.7808 9.08014ZM4.30223 9.93718C5.23297 9.83298 6.18711 9.6877 7.14126 9.54241C8.15394 9.38832 9.16516 9.23423 10.21 9.12269C10.4413 9.09921 10.6476 9.26798 10.6725 9.49985C10.6769 9.54975 10.6739 9.59818 10.6622 9.64367V9.64661C10.3037 11.0863 9.98175 12.2031 9.58663 13.2788C9.19004 14.3574 8.71736 15.3964 8.06028 16.6761C7.98126 16.8317 7.81882 16.9153 7.65638 16.9036C6.38467 16.8831 5.18906 16.8405 4.01248 16.7495C2.81101 16.657 1.61394 16.5132 0.352476 16.2946C0.12272 16.2549 -0.0309389 16.0363 0.00857335 15.8073C0.0261343 15.7017 0.0817441 15.6122 0.159305 15.5505C1.09735 14.7625 1.8437 13.9935 2.45394 13.1423C3.06272 12.2896 3.54418 11.349 3.95248 10.2145C4.00809 10.059 4.14711 9.95626 4.30223 9.93718ZM7.26711 10.3789C6.40077 10.511 5.53443 10.6431 4.65199 10.7473C4.23638 11.8479 3.74614 12.7813 3.13443 13.6339C2.63394 14.331 2.05589 14.9708 1.37248 15.6034C2.29004 15.7398 3.18126 15.8382 4.0754 15.9071C5.18467 15.9923 6.2837 16.0363 7.43102 16.0568C8.00906 14.918 8.43345 13.97 8.79492 12.9882C9.12565 12.0886 9.4037 11.1611 9.69492 10.0326C8.89736 10.1309 8.08224 10.2556 7.26711 10.3789Z" fill="#009FE3"/>
</svg>
