<svg width="19" height="18" viewBox="0 0 19 18" fill="none" xmlns="http://www.w3.org/2000/svg">
<path d="M10.9163 13.1572C11.7905 12.9453 12.5533 12.5845 13.1447 12.0005C13.7404 11.4136 14.1746 10.5876 14.3903 9.44377C14.4318 9.22332 14.646 9.0773 14.8703 9.11882C15.0417 9.15031 15.1674 9.28201 15.1989 9.44234C15.3788 10.3728 15.7031 11.1902 16.2516 11.8273C16.7945 12.4571 17.573 12.9209 18.6743 13.1572C18.8972 13.2044 19.0371 13.422 18.99 13.6424C18.9571 13.7913 18.8472 13.9044 18.71 13.9459C17.7872 14.3009 17.0102 14.7705 16.4145 15.3817C15.8217 15.9916 15.4031 16.7474 15.1946 17.6808C15.146 17.8998 14.9274 18.0387 14.706 17.99C14.5418 17.9542 14.4218 17.8239 14.3918 17.6693H14.3903C14.1875 16.6186 13.789 15.7926 13.2062 15.1799C12.6276 14.5715 11.8591 14.1678 10.9106 13.9531C10.6892 13.9044 10.5506 13.6854 10.6006 13.4664C10.6378 13.306 10.7649 13.1886 10.9163 13.1572ZM13.7247 12.5774C13.3047 12.9911 12.8205 13.3089 12.2834 13.5508C12.8705 13.8171 13.379 14.1721 13.8061 14.6216C14.2318 15.0697 14.5746 15.6065 14.8289 16.2378C15.086 15.7024 15.4203 15.2314 15.8231 14.8177C16.2788 14.351 16.8187 13.9588 17.4344 13.631C16.6802 13.3232 16.0888 12.8909 15.6274 12.3569C15.2746 11.9475 15.0017 11.4837 14.7932 10.9741C14.5203 11.6211 14.1589 12.1479 13.7247 12.5774ZM10.3664 10.9798C10.4192 10.987 10.4706 11.0056 10.5178 11.0328C10.6392 11.0671 10.7735 11.0857 10.9206 11.0857C11.2877 11.0857 11.6191 10.9369 11.8591 10.6978C12.0991 10.4573 12.2477 10.1237 12.2477 9.75298C12.2477 9.38365 12.1005 9.0544 11.862 8.81677C11.6234 8.57913 11.292 8.43312 10.9235 8.43312C10.2921 8.43312 9.89354 8.76809 9.7207 9.19612C9.6507 9.37077 9.61499 9.56259 9.61499 9.75585C9.61499 9.94767 9.6507 10.1395 9.7207 10.3156C9.8364 10.6019 10.0521 10.8467 10.3664 10.9798ZM10.3778 11.843C9.20359 12.7019 7.87941 13.0927 6.58093 13.0927C5.57244 13.0927 4.57823 12.858 3.67972 12.4228C2.78265 11.989 1.98128 11.3534 1.35561 10.5532C0.517104 9.47956 0 8.11532 0 6.54637C0 4.74121 0.731374 3.10498 1.91414 1.91824C3.09834 0.732941 4.7325 0 6.53665 0C7.34088 0 8.10368 0.144584 8.80648 0.40369C10.0878 0.877525 11.1563 1.73787 11.9034 2.81867C12.6505 3.89948 13.0776 5.1993 13.0776 6.55352H13.0762C13.0762 7.2335 12.969 7.92636 12.7419 8.61063C12.9505 8.93988 13.0719 9.33068 13.0719 9.75155C13.0719 10.3428 12.8305 10.881 12.4419 11.2704C12.052 11.6598 11.5148 11.9017 10.922 11.9017C10.7263 11.9017 10.5449 11.8817 10.3778 11.843ZM6.57951 12.2753C7.58372 12.2753 8.60507 12.0076 9.535 11.4279C9.27502 11.2074 9.08217 10.9254 8.9579 10.6148C8.84933 10.3428 8.79362 10.0479 8.79362 9.75585C8.79362 9.46238 8.84791 9.16749 8.95647 8.89693C9.24502 8.17831 9.89926 7.61572 10.922 7.61572C11.3477 7.61572 11.7448 7.73883 12.0791 7.95069C12.1977 7.48402 12.2548 7.01591 12.2548 6.55496H12.2534C12.2534 5.36679 11.8791 4.22729 11.2249 3.27962C10.5706 2.33195 9.63785 1.57897 8.52079 1.16669C7.91369 0.941944 7.2466 0.817401 6.53808 0.817401C4.95963 0.817401 3.53116 1.45729 2.49838 2.49372C1.46418 3.53014 0.824224 4.9631 0.824224 6.54637C0.824224 7.92493 1.27562 9.11882 2.00556 10.0536C2.54981 10.7508 3.25261 11.3062 4.0397 11.687C4.82535 12.0692 5.69671 12.2753 6.57951 12.2753Z" fill="#009FE3"/>
</svg>
