<svg width="20" height="20" viewBox="0 0 20 20" fill="none" xmlns="http://www.w3.org/2000/svg">
<path d="M10.667 4.80267C9.19062 4.61506 7.7784 5.04169 6.68853 5.88244C5.59727 6.72318 4.82836 7.98082 4.63997 9.45247C4.45158 10.9241 4.88138 12.3332 5.72704 13.4213C6.57131 14.5081 7.83143 15.2738 9.30645 15.46C10.7829 15.6476 12.1951 15.221 13.285 14.3802C14.3762 13.5395 15.1451 12.2818 15.3335 10.8102C15.5219 9.33852 15.0921 7.92941 14.2464 6.8413C13.4008 5.75459 12.1421 4.98888 10.667 4.80267ZM10.3921 19.6039C10.3921 19.8221 10.2107 20 9.98604 20C9.76137 20 9.57996 19.8221 9.57996 19.6039V16.2799C9.45437 16.2715 9.33017 16.259 9.20318 16.2437C7.88306 16.0756 6.71365 15.5072 5.8024 14.6762L3.4887 16.9803C3.3324 17.1359 3.07843 17.1373 2.92074 16.983C2.76305 16.8288 2.76165 16.5787 2.91795 16.423L5.24979 14.1009C5.19397 14.0356 5.13955 13.9689 5.08792 13.9008C4.31063 12.9002 3.84036 11.662 3.7971 10.3391H0.401898C0.180017 10.3405 0 10.1598 0 9.93886C0 9.7179 0.180017 9.53863 0.401898 9.53863H3.81663H3.82082C3.8264 9.4761 3.83338 9.41495 3.84175 9.35242C4.012 8.01973 4.5995 6.83991 5.45493 5.92829C5.42143 5.91023 5.38934 5.8866 5.36143 5.85881L2.94725 3.45331C2.79096 3.29767 2.79235 3.04753 2.95004 2.89327C3.10773 2.73902 3.36171 2.74041 3.518 2.89605L5.93358 5.30017C5.96567 5.33213 5.99079 5.36687 6.00893 5.40578C6.06894 5.35575 6.13034 5.30573 6.19313 5.25848C7.16857 4.50667 8.36729 4.04252 9.65113 3.97582C9.62322 3.92162 9.60647 3.86048 9.60647 3.79655V0.396053C9.60647 0.177877 9.78789 0 10.0126 0C10.2372 0 10.4186 0.177877 10.4186 0.396053V3.79655C10.4186 3.86326 10.4019 3.92579 10.3726 3.97999C10.5038 3.98833 10.6349 4.00083 10.7661 4.01751C12.0039 4.17454 13.1077 4.68455 13.9911 5.43218C14.0106 5.38911 14.0385 5.34742 14.0748 5.31128L16.489 2.90578C16.6453 2.75014 16.8992 2.74875 17.0569 2.903L17.0695 2.91551L17.0779 2.92246C17.2342 3.07671 17.2356 3.32685 17.0807 3.48249L14.6651 5.8866C14.6316 5.92135 14.5925 5.94775 14.5507 5.96581C14.6665 6.09227 14.7767 6.2229 14.8828 6.3577C15.5903 7.26793 16.0424 8.37549 16.1513 9.56504C16.161 9.56365 16.1708 9.56365 16.1806 9.56365H19.5967C19.8186 9.56365 19.9986 9.74291 19.9986 9.96387C19.9986 10.1848 19.8186 10.3641 19.5967 10.3641H16.1806H16.1722C16.1652 10.5434 16.1499 10.724 16.1262 10.9047C15.9699 12.1248 15.4647 13.2157 14.7237 14.0926L17.0695 16.4286C17.2258 16.5842 17.2244 16.8344 17.0667 16.9886C16.909 17.1429 16.655 17.1415 16.4987 16.9858L14.1697 14.6665C14.0427 14.7818 13.9115 14.893 13.7748 14.9986C12.8189 15.7365 11.6453 16.1965 10.3893 16.2771V19.6039H10.3921Z" fill="#009FE3"/>
<path d="M9.61063 8.41856V10.7824C9.61063 11.052 9.54923 11.2882 9.42922 11.4911C9.30781 11.6954 9.13338 11.8496 8.90312 11.958C8.67287 12.0664 8.40354 12.1206 8.08956 12.1206C7.61928 12.1206 7.25227 11.9997 6.99132 11.7593C6.73037 11.5189 6.60059 11.1895 6.60059 10.7713V8.41856H7.37508V10.6545C7.37508 10.9366 7.43229 11.1437 7.54532 11.2743C7.65975 11.4063 7.84675 11.4716 8.11049 11.4716C8.36447 11.4716 8.54867 11.4049 8.6631 11.2729C8.77753 11.1409 8.83475 10.9325 8.83475 10.6504V8.41856H9.61063ZM12.5997 8.41856H13.384L12.1378 12.0706H11.2894L10.046 8.41856H10.8303L11.5196 10.5906C11.5587 10.7198 11.5978 10.8685 11.6383 11.0395C11.6787 11.2104 11.7052 11.3285 11.715 11.3952C11.7332 11.2424 11.7959 10.9741 11.902 10.5906L12.5997 8.41856Z" fill="#009FE3"/>
</svg>
