<svg width="24" height="17" viewBox="0 0 24 17" fill="none" xmlns="http://www.w3.org/2000/svg">
<path d="M13.5786 4.17674C13.6987 4.17674 13.7969 4.08812 13.7969 3.97777C13.7969 3.8683 13.6987 3.77881 13.5786 3.77881C13.4585 3.77881 13.3604 3.86743 13.3604 3.97777C13.3604 4.08812 13.4585 4.17674 13.5786 4.17674Z" fill="#009FE3"/>
<path d="M6.00081 16.1034C4.62027 16.1034 3.41517 15.7027 2.51831 14.9431C1.53128 14.1091 0.965617 12.8607 1.00169 11.6056C1.06071 9.57334 2.06906 8.29656 3.13808 6.94532C4.04805 5.7931 5.081 4.48789 5.68273 2.49759L6.00081 1.44827L6.31889 2.49759C6.92226 4.48789 7.95357 5.7931 8.86354 6.94532C9.93092 8.29656 10.9393 9.57334 10.9983 11.6056C11.036 12.8607 10.4687 14.1077 9.48331 14.9431C8.58645 15.7013 7.38135 16.1034 6.00081 16.1034ZM1.65589 11.6192C1.62309 12.7321 2.12153 13.8329 2.9856 14.5654C3.75621 15.218 4.79899 15.5619 5.99917 15.5619C7.19935 15.5619 8.24214 15.2166 9.01274 14.5654C9.87845 13.8329 10.3752 12.7321 10.3425 11.6205C10.2883 9.74258 9.37181 8.58495 8.31264 7.24319C7.51743 6.2372 6.63369 5.11884 5.99917 3.53742C5.36465 5.11884 4.47927 6.2372 3.6857 7.24319C2.62653 8.58224 1.71163 9.73987 1.65589 11.6192Z" fill="#009FE3" stroke="#009FE3" stroke-width="0.5"/>
<path d="M3.69916 12.5896C3.69916 11.6494 4.89384 12.9447 6.36658 12.9447C7.84094 12.9447 9.03562 11.6494 9.03562 12.5896C9.03562 13.5298 7.84094 14.2916 6.36658 14.2916C4.89222 14.2916 3.69916 13.5298 3.69916 12.5896Z" fill="#009FE3"/>
<path d="M14.4225 7.43354C14.6261 7.43354 14.7927 7.28323 14.7927 7.09607C14.7927 6.91039 14.6261 6.75861 14.4225 6.75861C14.2188 6.75861 14.0522 6.90892 14.0522 7.09607C14.0522 7.28323 14.2188 7.43354 14.4225 7.43354Z" fill="#009FE3"/>
<path d="M16.4964 12.4307C16.7001 12.4307 16.8666 12.2804 16.8666 12.0932C16.8666 11.9076 16.7001 11.7558 16.4964 11.7558C16.2927 11.7558 16.1262 11.9061 16.1262 12.0932C16.1262 12.2789 16.2927 12.4307 16.4964 12.4307Z" fill="#009FE3"/>
<path d="M18.2245 10.8553C18.4282 10.8553 18.5947 10.705 18.5947 10.5179C18.5947 10.3322 18.4282 10.1804 18.2245 10.1804C18.0208 10.1804 17.8543 10.3307 17.8543 10.5179C17.8543 10.7036 18.0208 10.8553 18.2245 10.8553Z" fill="#009FE3"/>
<path d="M18.8664 3.69785C19.0701 3.69785 19.2366 3.54754 19.2366 3.36038C19.2366 3.1747 19.0701 3.02292 18.8664 3.02292C18.6627 3.02292 18.4962 3.17323 18.4962 3.36038C18.4962 3.54754 18.6627 3.69785 18.8664 3.69785Z" fill="#009FE3"/>
<path d="M19.5584 8.37965C19.7621 8.37965 19.9286 8.22934 19.9286 8.04218C19.9286 7.8565 19.7621 7.70471 19.5584 7.70471C19.3547 7.70471 19.1882 7.85503 19.1882 8.04218C19.1882 8.22786 19.3547 8.37965 19.5584 8.37965Z" fill="#009FE3"/>
<path d="M14.9915 4.82371C15.1273 4.82371 15.2388 4.7235 15.2388 4.59824C15.2388 4.47445 15.1273 4.37277 14.9915 4.37277C14.8557 4.37277 14.7441 4.47445 14.7441 4.59824C14.7441 4.7235 14.8541 4.82371 14.9915 4.82371Z" fill="#009FE3"/>
<path d="M17.0639 9.81938C17.1997 9.81938 17.3113 9.71917 17.3113 9.59391C17.3113 9.47012 17.1997 9.36844 17.0639 9.36844C16.9281 9.36844 16.8166 9.47012 16.8166 9.59391C16.8182 9.71917 16.9281 9.81938 17.0639 9.81938Z" fill="#009FE3"/>
<path d="M16.0277 7.20954C16.1635 7.20954 16.275 7.10934 16.275 6.98408C16.275 6.86029 16.1635 6.75861 16.0277 6.75861C15.8919 6.75861 15.7803 6.86029 15.7803 6.98408C15.7803 7.10934 15.8919 7.20954 16.0277 7.20954Z" fill="#009FE3"/>
<path d="M18.1017 12.2052C18.2375 12.2052 18.349 12.105 18.349 11.9798C18.349 11.856 18.2375 11.7543 18.1017 11.7543C17.9659 11.7543 17.8543 11.856 17.8543 11.9798C17.8543 12.105 17.9659 12.2052 18.1017 12.2052Z" fill="#009FE3"/>
<path d="M21.5583 7.29945C21.6941 7.29945 21.8056 7.19924 21.8056 7.07398C21.8056 6.95019 21.6941 6.84851 21.5583 6.84851C21.4225 6.84851 21.3109 6.95019 21.3109 7.07398C21.3109 7.19924 21.4225 7.29945 21.5583 7.29945Z" fill="#009FE3"/>
<path d="M22.0512 11.2149C22.187 11.2149 22.2985 11.1147 22.2985 10.9895C22.2985 10.8657 22.187 10.764 22.0512 10.764C21.9154 10.764 21.8038 10.8657 21.8038 10.9895C21.8038 11.1147 21.9154 11.2149 22.0512 11.2149Z" fill="#009FE3"/>
<path d="M18.8923 4.91358C19.0281 4.91358 19.1396 4.81337 19.1396 4.68811C19.1396 4.56433 19.0281 4.46265 18.8923 4.46265C18.7565 4.46265 18.645 4.56433 18.645 4.68811C18.645 4.81337 18.7549 4.91358 18.8923 4.91358Z" fill="#009FE3"/>
<path d="M19.6811 9.54972C19.8169 9.54972 19.9285 9.44951 19.9285 9.32425C19.9285 9.20047 19.8169 9.09879 19.6811 9.09879C19.5453 9.09879 19.4338 9.20047 19.4338 9.32425C19.4338 9.44951 19.5453 9.54972 19.6811 9.54972Z" fill="#009FE3"/>
<path d="M15.1887 8.55943C15.3245 8.55943 15.436 8.45922 15.436 8.33396C15.436 8.21017 15.3245 8.10849 15.1887 8.10849C15.0529 8.10849 14.9413 8.21017 14.9413 8.33396C14.9413 8.45922 15.0529 8.55943 15.1887 8.55943Z" fill="#009FE3"/>
<path d="M17.2627 13.5551C17.3985 13.5551 17.5101 13.4549 17.5101 13.3296C17.5101 13.2058 17.3985 13.1042 17.2627 13.1042C17.1269 13.1042 17.0154 13.2058 17.0154 13.3296C17.0154 13.4549 17.1253 13.5551 17.2627 13.5551Z" fill="#009FE3"/>
<path d="M21.4092 4.32856C21.545 4.32856 21.6565 4.22835 21.6565 4.10309C21.6565 3.97931 21.545 3.87762 21.4092 3.87762C21.2734 3.87762 21.1619 3.97931 21.1619 4.10309C21.1619 4.22835 21.2734 4.32856 21.4092 4.32856Z" fill="#009FE3"/>
<path d="M22.9402 8.10996C23.0759 8.10996 23.1875 8.00975 23.1875 7.88449C23.1875 7.76071 23.0759 7.65903 22.9402 7.65903C22.8044 7.65903 22.6928 7.76071 22.6928 7.88449C22.6928 8.00828 22.8044 8.10996 22.9402 8.10996Z" fill="#009FE3"/>
<path d="M17.9772 6.48896C18.1809 6.48896 18.3474 6.33865 18.3474 6.15149C18.3474 5.96581 18.1809 5.81403 17.9772 5.81403C17.7735 5.81403 17.607 5.96434 17.607 6.15149C17.607 6.33865 17.7735 6.48896 17.9772 6.48896Z" fill="#009FE3"/>
<path d="M20.0515 11.4846C20.2552 11.4846 20.4217 11.3343 20.4217 11.1472C20.4217 10.9615 20.2552 10.8097 20.0515 10.8097C19.8478 10.8097 19.6813 10.96 19.6813 11.1472C19.6813 11.3343 19.8478 11.4846 20.0515 11.4846Z" fill="#009FE3"/>
<path d="M17.3857 8.51523C17.7543 8.51523 18.0533 8.24408 18.0533 7.90661C18.0533 7.57062 17.7543 7.29947 17.3857 7.29947C17.0171 7.29947 16.718 7.57062 16.718 7.90661C16.718 8.2426 17.0171 8.51523 17.3857 8.51523Z" fill="#009FE3"/>
<path d="M20.5946 13.1498C20.9632 13.1498 21.2623 12.8787 21.2623 12.5412C21.2623 12.2052 20.9632 11.9341 20.5946 11.9341C20.226 11.9341 19.9269 12.2052 19.9269 12.5412C19.9286 12.8787 20.2276 13.1498 20.5946 13.1498Z" fill="#009FE3"/>
<path d="M13.336 5.94959C13.7046 5.94959 14.0037 5.67843 14.0037 5.34097C14.0037 5.00498 13.7046 4.73383 13.336 4.73383C12.9674 4.73383 12.6683 5.00498 12.6683 5.34097C12.67 5.67696 12.969 5.94959 13.336 5.94959Z" fill="#009FE3"/>
<path d="M15.1143 10.8996C15.4829 10.8996 15.782 10.6284 15.782 10.291C15.782 9.95496 15.4829 9.68381 15.1143 9.68381C14.7457 9.68381 14.4467 9.95496 14.4467 10.291C14.4467 10.6284 14.7457 10.8996 15.1143 10.8996Z" fill="#009FE3"/>
<path d="M16.8911 4.37278C17.2597 4.37278 17.5588 4.10162 17.5588 3.76416C17.5588 3.42816 17.2597 3.15701 16.8911 3.15701C16.5225 3.15701 16.2234 3.42816 16.2234 3.76416C16.2251 4.10162 16.5241 4.37278 16.8911 4.37278Z" fill="#009FE3"/>
<path d="M20.3974 6.44473C20.766 6.44473 21.0651 6.17358 21.0651 5.83612C21.0651 5.50012 20.766 5.22897 20.3974 5.22897C20.0288 5.22897 19.7297 5.50012 19.7297 5.83612C19.7297 6.17211 20.0288 6.44473 20.3974 6.44473Z" fill="#009FE3"/>
<path d="M21.4337 9.95496C21.8022 9.95496 22.1013 9.68381 22.1013 9.34634C22.1013 9.01035 21.8022 8.7392 21.4337 8.7392C21.0651 8.7392 20.766 9.01035 20.766 9.34634C20.7676 9.68233 21.0667 9.95496 21.4337 9.95496Z" fill="#009FE3"/>
</svg>
